<?xml version="1.0" encoding="UTF-8"?>
<svg height="160.13" viewBox="0 0 103.19 42.368" width="390" xmlns="http://www.w3.org/2000/svg" xmlns:xlink="http://www.w3.org/1999/xlink">
  <clipPath id="a">
    <path d="m55.5 267.62h127v49.631h-127z"/>
  </clipPath>
  <clipPath id="b">
    <path d="m55.5 306.71h34.652v-39.095h-34.652z"/>
  </clipPath>
  <linearGradient id="c" gradientTransform="matrix(34.652 0 0 -34.652 55.5 287.17)" gradientUnits="userSpaceOnUse" x2="1">
    <stop offset="0" stop-color="#003d7c"/>
    <stop offset=".1" stop-color="#003d7c"/>
    <stop offset=".95" stop-color="#00b0db"/>
    <stop offset="1" stop-color="#00b0db"/>
  </linearGradient>
  <g transform="translate(7.4068 40.312)">
    <rect fill="#fff" height="42.368" ry="3.1711" width="103.19" x="-7.4068" y="-40.312"/>
    <g transform="matrix(.78753 0 0 -.78753 -49.528 211.15)">
      <g clip-path="url(#a)">
        <path d="m12.98 81.046c-.01-.084-.133-.296-.484-.279-15.027.729-31.455-14.818-38.903-22.03-.14.107-.266.323.065.727 4.354 5.326 15.95 14.2 5.929 14.109-.321-.003-.452.223-.435.366 3.546 1.66 7.327 3.185 11.973 4.556-13.475 3.422-9.564 18.047-8.604 20.278.125.29.247.546.555.478 2.218-6.359 9.012-20.561 23.301-17.533 2.694.571 2.784 1.719 6.603-.672" fill="#003d7c" transform="translate(92.656 217.93)"/>
      </g>
      <g fill="#003d7c">
        <path d="m12.98 81.046c-.183 0-.466.011-.629.029v2.694c.189.017.453.029.635.029.58 0 1.077-.316 1.077-1.358 0-.972-.365-1.394-1.083-1.394m.025 3.396c-.377 0-1.083-.034-1.441-.082v-3.876c.39-.052 1.013-.082 1.448-.082 1.108 0 1.895.744 1.895 2.108 0 1.37-.863 1.932-1.902 1.932" transform="translate(113.86 187.24)"/>
        <path d="m12.98 81.046c.189-.018.453-.041.654-.041.303.241.786.748.88.988h-.811z" transform="translate(117.66 189.65)"/>
        <path d="m12.98 81.046c0-.129.013-.351.032-.475l-.057-.006c-.051.147-.132.328-.201.446l-1.455 2.377c-.22 0-.58-.018-.819-.053v-3.906h.705v2.465c0 .124-.012.294-.031.458l.056.005c.045-.134.146-.351.202-.445l1.536-2.512c.202 0 .542.024.737.053v3.923h-.705z" transform="translate(127.38 188.27)"/>
        <path d="m12.98 81.046h1.177v.632h-1.177v.955h1.586c.032.198.057.451.057.644h-2.43v-3.947h2.474c.032.216.063.445.063.644h-1.75z" transform="translate(84.216 188.37)"/>
        <path d="m134.34 267.7h.786v3.947h-.786z"/>
        <path d="m12.98 81.046h1.177v.632h-1.177v.955h1.586c.032.198.058.451.058.644h-2.431v-3.947h2.474c.032.216.063.445.063.644h-1.75z" transform="translate(104.98 188.37)"/>
        <path d="m12.98 81.046c-.661 0-.944.375-.944 1.406 0 1.077.315 1.405.944 1.405.611 0 .944-.328.944-1.405 0-1.049-.283-1.406-.944-1.406m0 3.437c-1.083 0-1.788-.691-1.788-2.056 0-1.416.692-2.008 1.788-2.008 1.057 0 1.789.616 1.789 2.033 0 1.416-.693 2.031-1.789 2.031" transform="translate(95.174 187.22)"/>
        <path d="m12.98 81.046c-.705 0-1.039.386-1.039 1.393 0 1.066.41 1.382 1.02 1.382.328 0 .674-.07.957-.199.051.211.108.463.12.65-.24.117-.73.193-1.115.193-1.039 0-1.825-.615-1.825-2.026 0-1.335.642-2.038 1.863-2.038.378 0 .85.082 1.165.258-.019.234-.069.457-.126.656-.264-.158-.661-.269-1.02-.269" transform="translate(90.073 187.24)"/>
        <path d="m12.98 81.046h-.787v-3.947h2.341c.032.211.057.433.057.65h-1.611z" transform="translate(100.24 190.6)"/>
        <path d="m12.98 81.046h1.177v.632h-1.177v.955h1.586c.032.198.058.451.058.644h-2.431v-3.947h2.474c.032.216.063.445.063.644h-1.75z" transform="translate(151.66 188.37)"/>
        <path d="m12.98 81.046c0-.65-.252-.884-.831-.884-.623 0-.806.217-.806.884v2.454h-.787v-2.342c0-1.277.592-1.664 1.58-1.664 1.134 0 1.587.609 1.587 1.664v2.342h-.743z" transform="translate(158.28 188.14)"/>
        <path d="m12.98 81.046c-.132-.047-.384-.07-.554-.07-.655 0-1.033.369-1.033 1.364 0 1.13.429 1.411 1.121 1.411.352 0 .768-.082 1.032-.211.057.211.114.474.126.668-.308.123-.799.188-1.202.188-1.121 0-1.92-.61-1.92-2.027 0-1.317.629-2.038 1.863-2.038.498 0 1.045.124 1.341.264v1.71h-.774z" transform="translate(133.01 187.31)"/>
        <path d="m12.98 81.046h-.428v1.259c.144.012.333.023.503.023.422 0 .662-.193.662-.615 0-.468-.29-.667-.737-.667m1.385-1.2c-.195.369-.428.667-.667.861.453.14.812.521.812 1.053 0 .838-.643 1.16-1.411 1.16-.396 0-.799-.024-1.315-.083v-3.905h.768v1.558h.49c.184-.182.416-.539.643-.972l.315-.621c.264 0 .566.029.824.076z" transform="translate(162.93 188.76)"/>
        <path d="m12.98 81.046c0 .293.163.474.605.474.27 0 .66-.041.938-.105.05.199.087.451.1.632-.29.071-.63.094-.9.094-.894 0-1.549-.399-1.549-1.142 0-1.182 1.826-1.066 1.826-1.809 0-.316-.196-.492-.605-.492-.346 0-.755.065-1.077.194-.056-.176-.125-.41-.157-.633.347-.141.794-.182 1.146-.182.894 0 1.499.416 1.499 1.177 0 1.177-1.826 1.125-1.826 1.792" transform="translate(167.69 189.56)"/>
        <path d="m160.34 267.7h.787v3.947h-.787z"/>
        <path d="m12.98 81.046c0-.129.013-.351.031-.475l-.056-.006c-.051.147-.132.328-.202.446l-1.454 2.377c-.22 0-.579-.018-.819-.053v-3.906h.705v2.465c0 .124-.011.294-.031.458l.057.005c.044-.134.145-.351.201-.445l1.536-2.512c.203 0 .542.024.738.053v3.923h-.706z" transform="translate(143.92 188.27)"/>
        <path d="m12.98 81.046h1.177v.632h-1.177v.955h1.586c.032.198.057.451.057.644h-2.43v-3.947h2.474c.032.216.063.445.063.644h-1.75z" transform="translate(137.21 188.37)"/>
        <path d="m12.98 81.046h4.366c.046.401.074.913.074 1.473 0 .559-.028 1.072-.074 1.473h-12.054c-.047-.4-.075-.913-.075-1.473 0-.559.028-1.072.075-1.473h4.365v-11.576h-.001c.436-.046 1.056-.074 1.666-.074.609 0 1.229.028 1.666.074l-.008.003z" transform="translate(118.84 205.56)"/>
        <path d="m12.98 81.046v2.924h6.586c.044.49.071.954.071 1.493 0 .54-.027 1.009-.071 1.396h-6.586v2.816h7.521c.044.491.071.986.071 1.526 0 .539-.027 1.034-.071 1.421h-10.701v-14.522h11.208c.045.386.072.881.072 1.421 0 .539-.027 1.034-.072 1.525z" transform="translate(86.609 196.93)"/>
        <path d="m12.98 81.046c.699 1.962 1.818 4.529 2.338 5.523h.001c.017.043.058.073.105.073.048 0 .089-.03.106-.073h.002c.52-.994 1.637-3.561 2.337-5.523zm2.496 9.06c-.522 0-1.021-.026-1.396-.069-1.758-2.659-4.813-9.982-6.334-14.626h.002c.455-.052 1.107-.084 1.742-.084.634 0 1.113.032 1.568.084h.002c.252.883.583 1.903.961 3.018h6.807c.378-1.115.71-2.135.961-3.018h.002c.455-.052 1.14-.084 1.773-.084.635 0 1.504.032 1.96.084h.001c-1.521 4.644-4.576 11.967-6.334 14.626-.375.043-1.192.069-1.715.069" transform="translate(127.8 199.62)"/>
        <path d="m12.98 81.046c.7 1.962 1.818 4.529 2.338 5.523h.002c.016.043.057.073.104.073.048 0 .089-.03.106-.073h.002c.52-.994 1.638-3.561 2.337-5.523zm2.496 9.06c-.522 0-1.021-.026-1.395-.069-1.759-2.659-4.814-9.982-6.335-14.626h.002c.455-.052 1.107-.084 1.742-.084.634 0 1.113.032 1.568.084h.002c.252.883.583 1.903.962 3.018h6.806c.378-1.115.71-2.135.961-3.018h.002c.455-.052 1.14-.084 1.774-.084s1.503.032 1.959.084h.001c-1.521 4.644-4.576 11.967-6.334 14.626-.374.043-1.192.069-1.715.069" transform="translate(158.85 199.62)"/>
        <path d="m12.98 81.046c-1.143-1.037-2.162-1.701-3.825-1.701-2.494 0-4.14 2.074-4.14 4.563v.043c0 2.489 1.688 4.522 4.14 4.522 1.455 0 2.599-.622 3.721-1.639.313.288.691.676 1.077 1.121.385.445.718.873.96 1.224-1.351 1.327-2.994 2.24-5.736 2.24-4.469 0-7.586-3.381-7.586-7.511v-.041c0-4.169 3.18-7.468 7.46-7.468 2.807 0 4.469.996 5.966 2.594-.246.31-.581.687-.967 1.077s-.761.728-1.07.976" transform="translate(150.74 198.38)"/>
        <path d="m12.98 81.046c-2.849.656-3.678 1.014-3.678 1.956 0 .692.558 1.31 2.074 1.31 1.612 0 3.112-.537 4.593-1.334 0 0 .382.496.781 1.392.368.829.49 1.409.49 1.409-1.484.823-3.454 1.425-5.649 1.425-3.367 0-5.717-1.777-5.717-4.465v-.042c0-2.942 2.091-3.766 5.411-4.528 2.755-.636 3.246-1.082 3.246-1.9 0-.894-1.204-1.447-2.924-1.447-1.602 0-3.482.541-4.854 1.367 0 0-.376-.511-.752-1.424-.346-.844-.446-1.429-.446-1.429 1.556-.81 3.606-1.382 6.128-1.382 3.977 0 6.215 1.793 6.215 4.605v.044c0 2.315-1.466 3.635-4.918 4.443" transform="translate(105.15 202.7)"/>
      </g>
      <g clip-path="url(#b)">
        <path d="m55.5 288c0-11.254 9.54-20.378 21.306-20.378 5.055 0 9.693 1.686 13.345 4.497-.217.424-.549.919-.965 1.416-.418.494-.849.909-1.23 1.196-3.223-2.454-7.275-3.919-11.682-3.919-10.493 0-18.999 8.29-18.999 18.518 0 7.443 4.519 13.832 11.006 16.798.535.244.093.589.093.589-7.572-3.125-12.874-10.327-12.874-18.717" fill="url(#c)"/>
      </g>
    </g>
  </g>
</svg>
